<svg id="apple" xmlns="http://www.w3.org/2000/svg" width="37.572" height="46.243" viewBox="0 0 37.572 46.243">
  <path id="Path_3" data-name="Path 3" d="M29.483.023c-.1-.11-3.639.043-6.72,3.387a9.207,9.207,0,0,0-2.538,7.272,8.364,8.364,0,0,0,7.153-3.636c2.76-3.887,2.2-6.91,2.1-7.023m9.578,33.911c-.139-.277-6.72-3.566-6.107-9.89s4.841-8.061,4.908-8.249a10.236,10.236,0,0,0-8.142-4.6,8.517,8.517,0,0,0-3.624.335c-1.468.4-4.778,1.7-5.688,1.754s-3.63-1.509-6.552-1.922a9.777,9.777,0,0,0-5.272.948c-1.416.566-4.11,2.179-5.994,6.465s-.9,11.069-.194,13.179a29.455,29.455,0,0,0,3.679,8.081,19.544,19.544,0,0,0,4.795,5.488,6.067,6.067,0,0,0,5.327.194,11.848,11.848,0,0,1,5.1-1.364,13.016,13.016,0,0,1,5.15,1.558,6.541,6.541,0,0,0,4.775-.3c1.564-.639,3.827-3.061,6.468-7.971q1.5-3.425,1.367-3.705" transform="translate(-1.5 0)"/>
  <path id="Path_4" data-name="Path 4" d="M29.483.023c-.1-.11-3.639.043-6.72,3.387a9.207,9.207,0,0,0-2.538,7.272,8.364,8.364,0,0,0,7.153-3.636c2.76-3.887,2.2-6.91,2.1-7.023m9.578,33.911c-.139-.277-6.72-3.566-6.107-9.89s4.841-8.061,4.908-8.249a10.236,10.236,0,0,0-8.142-4.6,8.517,8.517,0,0,0-3.624.335c-1.468.4-4.778,1.7-5.688,1.754s-3.63-1.509-6.552-1.922a9.777,9.777,0,0,0-5.272.948c-1.416.566-4.11,2.179-5.994,6.465s-.9,11.069-.194,13.179a29.455,29.455,0,0,0,3.679,8.081,19.544,19.544,0,0,0,4.795,5.488,6.067,6.067,0,0,0,5.327.194,11.848,11.848,0,0,1,5.1-1.364,13.016,13.016,0,0,1,5.15,1.558,6.541,6.541,0,0,0,4.775-.3c1.564-.639,3.827-3.061,6.468-7.971q1.5-3.425,1.367-3.705" transform="translate(-1.5 0)"/>
</svg>
