<svg xmlns="http://www.w3.org/2000/svg" width="61.658" height="46.243" viewBox="0 0 61.658 46.243">
  <path id="email_" data-name="email " d="M0,9.707A7.707,7.707,0,0,1,7.707,2H53.951a7.707,7.707,0,0,1,7.707,7.707V40.536a7.707,7.707,0,0,1-7.707,7.707H7.707A7.707,7.707,0,0,1,0,40.536ZM7.707,5.854A3.854,3.854,0,0,0,3.854,9.707v.836L30.829,26.729,57.8,10.543V9.707a3.854,3.854,0,0,0-3.854-3.854Zm50.1,9.183L39.662,25.923,57.8,37.087Zm-.131,26.5L35.939,28.158l-5.11,3.064-5.11-3.064L3.985,41.53A3.854,3.854,0,0,0,7.707,44.39H53.951a3.854,3.854,0,0,0,3.723-2.856M3.854,37.087,22,25.923,3.854,15.037Z" transform="translate(0 -2)"/>
</svg>
